<mxfile host="Electron" agent="Mozilla/5.0 (Windows NT 10.0; Win64; x64) AppleWebKit/537.36 (KHTML, like Gecko) draw.io/24.7.8 Chrome/128.0.6613.36 Electron/32.0.1 Safari/537.36" version="24.7.8">
  <diagram id="hYCEaZpM8_9cK8XsgED2" name="Page-1">
    <mxGraphModel dx="1912" dy="1725" grid="1" gridSize="10" guides="1" tooltips="1" connect="1" arrows="1" fold="1" page="1" pageScale="1" pageWidth="850" pageHeight="1100" math="0" shadow="0">
      <root>
        <mxCell id="0" />
        <mxCell id="1" parent="0" />
        <mxCell id="5h7gm0TYYHjfPQQybxTF-17" value="Docker Engine" style="rounded=0;whiteSpace=wrap;html=1;labelPosition=center;verticalLabelPosition=top;align=center;verticalAlign=bottom;" parent="1" vertex="1">
          <mxGeometry x="-620" y="-1020" width="460" height="440" as="geometry" />
        </mxCell>
        <mxCell id="5h7gm0TYYHjfPQQybxTF-16" value="Unauthorized Client" style="aspect=fixed;perimeter=ellipsePerimeter;html=1;align=center;shadow=0;dashed=0;spacingTop=3;image;image=img/lib/active_directory/laptop_client.svg;" parent="1" vertex="1">
          <mxGeometry x="-730" y="-928" width="45" height="50" as="geometry" />
        </mxCell>
        <mxCell id="5h7gm0TYYHjfPQQybxTF-22" value="Front GUI&lt;br&gt;React" style="sketch=0;html=1;dashed=0;whitespace=wrap;fillColor=#2875E2;strokeColor=#ffffff;points=[[0.005,0.63,0],[0.1,0.2,0],[0.9,0.2,0],[0.5,0,0],[0.995,0.63,0],[0.72,0.99,0],[0.5,1,0],[0.28,0.99,0]];shape=mxgraph.kubernetes.icon;prIcon=pod;labelPosition=center;verticalLabelPosition=bottom;align=center;verticalAlign=top;" parent="1" vertex="1">
          <mxGeometry x="-360" y="-987" width="50" height="48" as="geometry" />
        </mxCell>
        <mxCell id="uRfIFmvWlnazfWxHXF4u-2" value="Nginx gateway" style="rounded=0;whiteSpace=wrap;html=1;labelPosition=center;verticalLabelPosition=top;align=center;verticalAlign=bottom;" vertex="1" parent="1">
          <mxGeometry x="-570" y="-970" width="130" height="350" as="geometry" />
        </mxCell>
        <mxCell id="5h7gm0TYYHjfPQQybxTF-18" value="Public entrypoint" style="sketch=0;html=1;dashed=0;whitespace=wrap;fillColor=#2875E2;strokeColor=#ffffff;points=[[0.005,0.63,0],[0.1,0.2,0],[0.9,0.2,0],[0.5,0,0],[0.995,0.63,0],[0.72,0.99,0],[0.5,1,0],[0.28,0.99,0]];shape=mxgraph.kubernetes.icon;prIcon=ing;labelPosition=center;verticalLabelPosition=bottom;align=center;verticalAlign=top;" parent="1" vertex="1">
          <mxGeometry x="-530" y="-928" width="50" height="48" as="geometry" />
        </mxCell>
        <mxCell id="uRfIFmvWlnazfWxHXF4u-4" value="Private entrypoint" style="sketch=0;html=1;dashed=0;whitespace=wrap;fillColor=#2875E2;strokeColor=#ffffff;points=[[0.005,0.63,0],[0.1,0.2,0],[0.9,0.2,0],[0.5,0,0],[0.995,0.63,0],[0.72,0.99,0],[0.5,1,0],[0.28,0.99,0]];shape=mxgraph.kubernetes.icon;prIcon=ing;labelPosition=center;verticalLabelPosition=bottom;align=center;verticalAlign=top;" vertex="1" parent="1">
          <mxGeometry x="-530" y="-721" width="50" height="48" as="geometry" />
        </mxCell>
        <mxCell id="uRfIFmvWlnazfWxHXF4u-5" value="Authorized Client" style="aspect=fixed;perimeter=ellipsePerimeter;html=1;align=center;shadow=0;dashed=0;spacingTop=3;image;image=img/lib/active_directory/laptop_client.svg;" vertex="1" parent="1">
          <mxGeometry x="-730" y="-721" width="45" height="50" as="geometry" />
        </mxCell>
        <mxCell id="uRfIFmvWlnazfWxHXF4u-6" value="API - GraphQL&lt;br&gt;Python / Flask" style="sketch=0;html=1;dashed=0;whitespace=wrap;fillColor=#2875E2;strokeColor=#ffffff;points=[[0.005,0.63,0],[0.1,0.2,0],[0.9,0.2,0],[0.5,0,0],[0.995,0.63,0],[0.72,0.99,0],[0.5,1,0],[0.28,0.99,0]];shape=mxgraph.kubernetes.icon;prIcon=pod;labelPosition=center;verticalLabelPosition=bottom;align=center;verticalAlign=top;" vertex="1" parent="1">
          <mxGeometry x="-360" y="-880" width="50" height="48" as="geometry" />
        </mxCell>
        <mxCell id="uRfIFmvWlnazfWxHXF4u-8" value="Front GUI&lt;br&gt;Angular" style="sketch=0;html=1;dashed=0;whitespace=wrap;fillColor=#2875E2;strokeColor=#ffffff;points=[[0.005,0.63,0],[0.1,0.2,0],[0.9,0.2,0],[0.5,0,0],[0.995,0.63,0],[0.72,0.99,0],[0.5,1,0],[0.28,0.99,0]];shape=mxgraph.kubernetes.icon;prIcon=pod;labelPosition=center;verticalLabelPosition=bottom;align=center;verticalAlign=top;" vertex="1" parent="1">
          <mxGeometry x="-360" y="-680" width="50" height="48" as="geometry" />
        </mxCell>
        <mxCell id="uRfIFmvWlnazfWxHXF4u-9" value="API - REST&lt;br&gt;PHP / Laravel" style="sketch=0;html=1;dashed=0;whitespace=wrap;fillColor=#2875E2;strokeColor=#ffffff;points=[[0.005,0.63,0],[0.1,0.2,0],[0.9,0.2,0],[0.5,0,0],[0.995,0.63,0],[0.72,0.99,0],[0.5,1,0],[0.28,0.99,0]];shape=mxgraph.kubernetes.icon;prIcon=pod;labelPosition=center;verticalLabelPosition=bottom;align=center;verticalAlign=top;" vertex="1" parent="1">
          <mxGeometry x="-360" y="-780" width="50" height="48" as="geometry" />
        </mxCell>
        <mxCell id="uRfIFmvWlnazfWxHXF4u-10" value="MySQL DB" style="sketch=0;html=1;dashed=0;whitespace=wrap;fillColor=#2875E2;strokeColor=#ffffff;points=[[0.005,0.63,0],[0.1,0.2,0],[0.9,0.2,0],[0.5,0,0],[0.995,0.63,0],[0.72,0.99,0],[0.5,1,0],[0.28,0.99,0]];shape=mxgraph.kubernetes.icon;prIcon=pod;labelPosition=center;verticalLabelPosition=bottom;align=center;verticalAlign=top;" vertex="1" parent="1">
          <mxGeometry x="-250" y="-819" width="50" height="48" as="geometry" />
        </mxCell>
        <mxCell id="uRfIFmvWlnazfWxHXF4u-14" style="edgeStyle=orthogonalEdgeStyle;rounded=0;orthogonalLoop=1;jettySize=auto;html=1;exitX=0.995;exitY=0.63;exitDx=0;exitDy=0;exitPerimeter=0;entryX=0.005;entryY=0.63;entryDx=0;entryDy=0;entryPerimeter=0;curved=1;" edge="1" parent="1" source="uRfIFmvWlnazfWxHXF4u-4" target="uRfIFmvWlnazfWxHXF4u-8">
          <mxGeometry relative="1" as="geometry" />
        </mxCell>
        <mxCell id="uRfIFmvWlnazfWxHXF4u-15" style="edgeStyle=orthogonalEdgeStyle;rounded=0;orthogonalLoop=1;jettySize=auto;html=1;exitX=0.9;exitY=0.2;exitDx=0;exitDy=0;exitPerimeter=0;entryX=0.005;entryY=0.63;entryDx=0;entryDy=0;entryPerimeter=0;curved=1;" edge="1" parent="1" source="5h7gm0TYYHjfPQQybxTF-18" target="5h7gm0TYYHjfPQQybxTF-22">
          <mxGeometry relative="1" as="geometry" />
        </mxCell>
        <mxCell id="uRfIFmvWlnazfWxHXF4u-16" style="edgeStyle=orthogonalEdgeStyle;rounded=0;orthogonalLoop=1;jettySize=auto;html=1;exitX=0.995;exitY=0.63;exitDx=0;exitDy=0;exitPerimeter=0;entryX=0.005;entryY=0.63;entryDx=0;entryDy=0;entryPerimeter=0;curved=1;" edge="1" parent="1" source="5h7gm0TYYHjfPQQybxTF-18" target="uRfIFmvWlnazfWxHXF4u-6">
          <mxGeometry relative="1" as="geometry" />
        </mxCell>
        <mxCell id="uRfIFmvWlnazfWxHXF4u-17" style="edgeStyle=orthogonalEdgeStyle;rounded=0;orthogonalLoop=1;jettySize=auto;html=1;exitX=1;exitY=0.5;exitDx=0;exitDy=0;entryX=0.005;entryY=0.63;entryDx=0;entryDy=0;entryPerimeter=0;curved=1;" edge="1" parent="1" source="5h7gm0TYYHjfPQQybxTF-16" target="5h7gm0TYYHjfPQQybxTF-18">
          <mxGeometry relative="1" as="geometry" />
        </mxCell>
        <mxCell id="uRfIFmvWlnazfWxHXF4u-18" style="edgeStyle=orthogonalEdgeStyle;rounded=0;orthogonalLoop=1;jettySize=auto;html=1;exitX=1;exitY=0.5;exitDx=0;exitDy=0;entryX=0.005;entryY=0.63;entryDx=0;entryDy=0;entryPerimeter=0;curved=1;" edge="1" parent="1" source="uRfIFmvWlnazfWxHXF4u-5" target="uRfIFmvWlnazfWxHXF4u-4">
          <mxGeometry relative="1" as="geometry" />
        </mxCell>
        <mxCell id="uRfIFmvWlnazfWxHXF4u-19" style="edgeStyle=orthogonalEdgeStyle;rounded=0;orthogonalLoop=1;jettySize=auto;html=1;exitX=0.9;exitY=0.2;exitDx=0;exitDy=0;exitPerimeter=0;entryX=0.005;entryY=0.63;entryDx=0;entryDy=0;entryPerimeter=0;curved=1;" edge="1" parent="1" source="uRfIFmvWlnazfWxHXF4u-4" target="uRfIFmvWlnazfWxHXF4u-9">
          <mxGeometry relative="1" as="geometry" />
        </mxCell>
        <mxCell id="uRfIFmvWlnazfWxHXF4u-22" style="edgeStyle=orthogonalEdgeStyle;rounded=0;orthogonalLoop=1;jettySize=auto;html=1;exitX=0.995;exitY=0.63;exitDx=0;exitDy=0;exitPerimeter=0;entryX=0.005;entryY=0.63;entryDx=0;entryDy=0;entryPerimeter=0;curved=1;" edge="1" parent="1" source="uRfIFmvWlnazfWxHXF4u-9" target="uRfIFmvWlnazfWxHXF4u-10">
          <mxGeometry relative="1" as="geometry" />
        </mxCell>
        <mxCell id="uRfIFmvWlnazfWxHXF4u-23" style="edgeStyle=orthogonalEdgeStyle;rounded=0;orthogonalLoop=1;jettySize=auto;html=1;exitX=0.995;exitY=0.63;exitDx=0;exitDy=0;exitPerimeter=0;entryX=0.1;entryY=0.2;entryDx=0;entryDy=0;entryPerimeter=0;curved=1;" edge="1" parent="1" source="uRfIFmvWlnazfWxHXF4u-6" target="uRfIFmvWlnazfWxHXF4u-10">
          <mxGeometry relative="1" as="geometry" />
        </mxCell>
      </root>
    </mxGraphModel>
  </diagram>
</mxfile>
